<svg width="888" height="427" viewBox="0 0 888 427" fill="none" xmlns="http://www.w3.org/2000/svg">
<rect width="836.224" height="49.5634" transform="matrix(0.808015 -0.589162 0.769079 0.639154 -27.2773 438.169)" fill="#AC1B1D"/>
<rect width="698.191" height="49.5634" transform="matrix(0.808015 -0.589162 0.769079 0.639154 -52.1602 366.739)" fill="#AC1B1D"/>
<rect width="567.662" height="49.5634" transform="matrix(0.808015 -0.589162 0.769079 0.639154 -48.9375 274.807)" fill="#AC1B1D"/>
<rect width="420.608" height="49.5634" transform="matrix(0.808015 -0.589162 0.769079 0.639154 -53.8477 195.563)" fill="#AC1B1D"/>
<rect width="365.682" height="49.5634" transform="matrix(0.808015 -0.589162 0.769079 0.639154 -105 152.449)" fill="#AC1B1D"/>
<rect width="365.682" height="49.5634" transform="matrix(0.808015 -0.589162 0.769079 0.639154 -155 109.447)" fill="#AC1B1D"/>
<rect width="958.75" height="49.5634" transform="matrix(0.808015 -0.589162 0.769079 0.639154 -11.6133 516.324)" fill="#AC1B1D"/>
<rect width="856.987" height="49.5634" transform="matrix(0.808015 -0.589162 0.769079 0.639154 167.57 475.246)" fill="#AC1B1D"/>
<rect width="722.322" height="49.5634" transform="matrix(0.808015 -0.589162 0.769079 0.639154 324.758 450.211)" fill="#AC1B1D"/>
<rect width="575.887" height="49.5634" transform="matrix(0.808015 -0.589162 0.769079 0.639154 445.57 448.106)" fill="#AC1B1D"/>
<rect width="464.901" height="49.5634" transform="matrix(0.808015 -0.589162 0.769079 0.639154 544.578 464.392)" fill="#AC1B1D"/>
<rect width="309.291" height="49.5634" transform="matrix(0.808015 -0.589162 0.769079 0.639154 670.969 457.035)" fill="#AC1B1D"/>
<rect width="180.264" height="49.5634" transform="matrix(0.808015 -0.589162 0.769079 0.639154 767.805 471.676)" fill="#AC1B1D"/>
</svg>
