<svg width="48" height="48" viewBox="0 0 48 48" fill="none" xmlns="http://www.w3.org/2000/svg">
<g filter="url(#filter0_d_265_2612)">
<circle cx="24.1737" cy="20.8691" r="20.1737" fill="#FB3020"/>
</g>
<path d="M24.1689 16.7289C21.8777 16.7289 20.0285 18.578 20.0285 20.8693C20.0285 23.1606 21.8777 25.0097 24.1689 25.0097C26.4601 25.0097 28.3092 23.1606 28.3092 20.8693C28.3092 18.578 26.4601 16.7289 24.1689 16.7289ZM24.1689 23.5603C22.6872 23.5603 21.478 22.3511 21.478 20.8693C21.478 19.3875 22.6872 18.1783 24.1689 18.1783C25.6506 18.1783 26.8598 19.3875 26.8598 20.8693C26.8598 22.3511 25.6506 23.5603 24.1689 23.5603ZM28.4788 15.5943C27.9439 15.5943 27.5119 16.0263 27.5119 16.5613C27.5119 17.0963 27.9439 17.5283 28.4788 17.5283C29.0138 17.5283 29.4458 17.0983 29.4458 16.5613C29.4459 16.4343 29.421 16.3085 29.3725 16.1911C29.324 16.0737 29.2527 15.967 29.1629 15.8772C29.0731 15.7874 28.9664 15.7162 28.849 15.6676C28.7317 15.6191 28.6058 15.5942 28.4788 15.5943ZM32.2397 20.8693C32.2397 19.755 32.2498 18.6507 32.1872 17.5384C32.1246 16.2464 31.8299 15.0997 30.8851 14.155C29.9383 13.2082 28.7937 12.9155 27.5018 12.8529C26.3874 12.7903 25.2832 12.8004 24.1709 12.8004C23.0566 12.8004 21.9524 12.7903 20.8401 12.8529C19.5481 12.9155 18.4015 13.2102 17.4567 14.155C16.5099 15.1018 16.2172 16.2464 16.1546 17.5384C16.0921 18.6527 16.1022 19.757 16.1022 20.8693C16.1022 21.9816 16.0921 23.0879 16.1546 24.2002C16.2172 25.4922 16.512 26.6389 17.4567 27.5836C18.4035 28.5304 19.5481 28.8231 20.8401 28.8857C21.9544 28.9483 23.0586 28.9382 24.1709 28.9382C25.2852 28.9382 26.3895 28.9483 27.5018 28.8857C28.7937 28.8231 29.9404 28.5284 30.8851 27.5836C31.8319 26.6368 32.1246 25.4922 32.1872 24.2002C32.2518 23.0879 32.2397 21.9836 32.2397 20.8693ZM30.4632 25.6295C30.3158 25.9969 30.1382 26.2714 29.8536 26.5541C29.5689 26.8387 29.2964 27.0164 28.929 27.1637C27.8672 27.5856 25.3458 27.4908 24.1689 27.4908C22.992 27.4908 20.4686 27.5856 19.4068 27.1657C19.0394 27.0184 18.7648 26.8407 18.4822 26.5561C18.1976 26.2714 18.0199 25.9989 17.8726 25.6315C17.4527 24.5676 17.5476 22.0462 17.5476 20.8693C17.5476 19.6924 17.4527 17.169 17.8726 16.1071C18.0199 15.7397 18.1976 15.4651 18.4822 15.1825C18.7668 14.8999 19.0394 14.7202 19.4068 14.5729C20.4686 14.153 22.992 14.2478 24.1689 14.2478C25.3458 14.2478 27.8692 14.153 28.931 14.5729C29.2984 14.7202 29.573 14.8979 29.8556 15.1825C30.1402 15.4672 30.3179 15.7397 30.4652 16.1071C30.8851 17.169 30.7902 19.6924 30.7902 20.8693C30.7902 22.0462 30.8851 24.5676 30.4632 25.6295Z" fill="#E2E2E2"/>
<defs>
<filter id="filter0_d_265_2612" x="0.82984" y="0.695312" width="46.688" height="46.688" filterUnits="userSpaceOnUse" color-interpolation-filters="sRGB">
<feFlood flood-opacity="0" result="BackgroundImageFix"/>
<feColorMatrix in="SourceAlpha" type="matrix" values="0 0 0 0 0 0 0 0 0 0 0 0 0 0 0 0 0 0 127 0" result="hardAlpha"/>
<feOffset dy="3.17016"/>
<feGaussianBlur stdDeviation="1.58508"/>
<feComposite in2="hardAlpha" operator="out"/>
<feColorMatrix type="matrix" values="0 0 0 0 0 0 0 0 0 0 0 0 0 0 0 0 0 0 0.25 0"/>
<feBlend mode="normal" in2="BackgroundImageFix" result="effect1_dropShadow_265_2612"/>
<feBlend mode="normal" in="SourceGraphic" in2="effect1_dropShadow_265_2612" result="shape"/>
</filter>
</defs>
</svg>
